<svg xmlns="http://www.w3.org/2000/svg" width="96" height="96" fill="none" viewBox="0 0 96 96">
    <path fill="#E8F4FA" fill-rule="evenodd" d="M89.876 48c0-22.798-18.365-41.28-41.018-41.28C26.205 6.72 7.84 25.202 7.84 48c0 6.073 1.314 11.835 3.655 17.028h74.727c2.34-5.193 3.654-10.955 3.654-17.028z" clip-rule="evenodd"/>
    <path fill="#fff" fill-rule="evenodd" d="M11.494 65.027C17.94 79.327 32.24 89.28 48.858 89.28c16.618 0 30.918-9.951 37.363-24.252H11.494z" clip-rule="evenodd"/>
    <path stroke="#1A1816" stroke-linecap="round" stroke-linejoin="round" d="M8.354 65.027h79.985M3.738 65.027h2.564M90.389 65.027h2.563"/>
    <path fill="#020202" fill-opacity=".15" fill-rule="evenodd" d="M72.564 75.457c0 1.13-10.93 2.046-24.41 2.046-13.483 0-24.412-.916-24.412-2.046 0-1.131 10.93-2.048 24.411-2.048 13.482 0 24.411.917 24.411 2.048z" clip-rule="evenodd"/>
    <path fill="#00B8F0" fill-rule="evenodd" d="M72.564 59.079l-.005-26.205c0-1.809-1.458-3.275-3.256-3.275h-42.31c-1.798 0-3.257 1.466-3.257 3.275l.006 26.205h48.822z" clip-rule="evenodd"/>
    <path fill-rule="evenodd" stroke="#1A1816" stroke-linecap="round" stroke-linejoin="round" d="M72.564 59.079l-.005-26.205c0-1.809-1.458-3.275-3.256-3.275h-42.31c-1.798 0-3.257 1.466-3.257 3.275l.006 26.205h48.822z" clip-rule="evenodd"/>
    <path fill="#E8F4FA" fill-rule="evenodd" d="M72.558 59.08v4.913c0 1.809-1.457 3.275-3.255 3.275H26.991c-1.797 0-3.255-1.466-3.255-3.276V59.08h48.822z" clip-rule="evenodd"/>
    <path fill-rule="evenodd" stroke="#1A1816" stroke-linecap="round" stroke-linejoin="round" d="M72.558 59.08v4.913c0 1.809-1.457 3.275-3.255 3.275H26.991c-1.797 0-3.255-1.466-3.255-3.276V59.08h48.822z" clip-rule="evenodd"/>
    <path fill="#6DD627" fill-rule="evenodd" d="M46.52 29.599H26.99c-1.797 0-3.255 1.466-3.255 3.275v19.654l22.784-22.93z" clip-rule="evenodd"/>
    <path fill="#fff" fill-rule="evenodd" d="M45.706 40.245L64.421 59.08H53.03L40.01 45.978l5.696-5.733z" clip-rule="evenodd"/>
    <path fill-rule="evenodd" stroke="#1A1816" stroke-linecap="round" stroke-linejoin="round" d="M45.706 40.245L64.421 59.08H53.03L40.01 45.978l5.696-5.733z" clip-rule="evenodd"/>
    <path fill="#00B8F0" fill-rule="evenodd" d="M26.992 59.079l13.02-13.102L53.03 59.079H26.992z" clip-rule="evenodd"/>
    <path fill-rule="evenodd" stroke="#1A1816" stroke-linecap="round" stroke-linejoin="round" d="M26.992 59.079l13.02-13.102L53.03 59.079H26.992z" clip-rule="evenodd"/>
    <path fill="#1A1816" fill-opacity=".15" fill-rule="evenodd" d="M48.148 61.809c-.749 0-1.357.61-1.357 1.364 0 .754.608 1.365 1.357 1.365.748 0 1.356-.61 1.356-1.365 0-.754-.608-1.364-1.356-1.364zm0 1.032c.182 0 .331.15.331.332 0 .184-.149.333-.331.333-.183 0-.332-.15-.332-.333 0-.183.15-.332.332-.332z" clip-rule="evenodd"/>
    <path fill="#DAEDF7" fill-rule="evenodd" d="M56.29 73.82H40.016l.813-6.551h14.647l.814 6.55z" clip-rule="evenodd"/>
    <path fill="#C0DCEB" fill-rule="evenodd" d="M55.884 70.68l-.407-3.411H40.83l-.406 3.411h15.46z" clip-rule="evenodd"/>
    <path fill-rule="evenodd" stroke="#1A1816" stroke-linecap="round" stroke-linejoin="round" d="M56.29 74.092H40.016l.813-6.823h14.647l.814 6.823z" clip-rule="evenodd"/>
    <path fill="#FFE600" fill-rule="evenodd" d="M56.284 29.599l-29.293 29.48h-3.255v-6.551l22.784-22.93h9.764z" clip-rule="evenodd"/>
    <path fill-rule="evenodd" stroke="#1A1816" stroke-linecap="round" stroke-linejoin="round" d="M56.284 29.599l-29.293 29.48h-3.255v-6.551l22.784-22.93h9.764z" clip-rule="evenodd"/>
    <path fill="#FF6242" fill-rule="evenodd" d="M64.42 18.135c5.394 0 9.765 4.4 9.765 9.826 0 4.316-6.175 12.642-8.704 15.872-.542.693-1.578.693-2.122 0-2.529-3.23-8.703-11.556-8.703-15.871 0-5.428 4.372-9.827 9.765-9.827z" clip-rule="evenodd"/>
    <path fill="#FF866E" fill-rule="evenodd" d="M64.42 20.864c4.861 0 8.881 3.578 9.629 8.258.08-.408.136-.802.136-1.16 0-5.428-4.371-9.827-9.764-9.827-5.393 0-9.765 4.4-9.765 9.826 0 .359.057.753.137 1.162.747-4.68 4.766-8.259 9.628-8.259z" clip-rule="evenodd"/>
    <path fill-rule="evenodd" stroke="#1A1816" stroke-linecap="round" stroke-linejoin="round" d="M64.42 18.135c5.394 0 9.765 4.4 9.765 9.826 0 4.316-6.175 12.642-8.704 15.872-.542.693-1.578.693-2.122 0-2.529-3.23-8.703-11.556-8.703-15.871 0-5.428 4.372-9.827 9.765-9.827z" clip-rule="evenodd"/>
    <path fill="#E04222" fill-rule="evenodd" d="M68.49 27.961c0 2.261-1.82 4.094-4.067 4.094-2.248 0-4.07-1.833-4.07-4.094 0-2.26 1.822-4.095 4.07-4.095 2.246 0 4.067 1.834 4.067 4.095z" clip-rule="evenodd"/>
    <path fill-rule="evenodd" stroke="#1A1816" stroke-linecap="round" stroke-linejoin="round" d="M68.49 27.961c0 2.261-1.82 4.094-4.067 4.094-2.248 0-4.07-1.833-4.07-4.094 0-2.26 1.822-4.095 4.07-4.095 2.246 0 4.067 1.834 4.067 4.095z" clip-rule="evenodd"/>
    <path fill="#9CEB60" fill-rule="evenodd" d="M38.389 29.599H26.992c-1.797 0-3.256 1.466-3.256 3.275v12.283L38.39 29.6z" clip-rule="evenodd"/>
    <path fill-rule="evenodd" stroke="#1A1816" stroke-linecap="round" stroke-linejoin="round" d="M46.52 29.599H26.99c-1.797 0-3.255 1.466-3.255 3.275v19.654l22.784-22.93z" clip-rule="evenodd"/>
    <path stroke="#1A1816" stroke-linecap="round" stroke-linejoin="round" d="M35.264 74.092H61.03"/>
</svg>
