<svg xmlns="http://www.w3.org/2000/svg" width="60" height="61" viewBox="0 0 60 61">
    <g fill="none" fill-rule="evenodd">
        <path fill="#E8F4FA" d="M58.2 31.074c0 15.479-12.626 28.027-28.2 28.027S1.8 46.553 1.8 31.074C1.8 15.595 14.426 3.047 30 3.047s28.2 12.548 28.2 28.027"/>
        <path fill="#020202" fill-opacity=".15" d="M40.949 42.659l-.861.07-.327-3.993a.575.575 0 0 0-.62-.524l-18.938 1.534a.573.573 0 0 0-.527.617l.982 11.977c.026.314.304.549.62.523l18.938-1.533a.573.573 0 0 0 .527-.617l-.421-5.133.86-.07a1.433 1.433 0 0 0 1.318-1.542 1.436 1.436 0 0 0-1.551-1.31M36.75 35.635H23.506a1.722 1.722 0 0 1-1.728-1.716v-4.006h16.697v4.006c0 .948-.773 1.716-1.727 1.716M45.385 21.902c0-.49-4.097-.907-9.858-1.07l-.01-.074h-10.78l-.008.073c-5.761.164-9.858.581-9.858 1.07 0 .483 3.978.895 9.605 1.064l-.09.763a2.414 2.414 0 0 0 2.408 2.691h6.668a2.415 2.415 0 0 0 2.408-2.69l-.09-.764c5.627-.169 9.605-.58 9.605-1.063M44.737 39.743L43.9 42.06a2.15 2.15 0 0 0 1.306 2.755 2.17 2.17 0 0 0 2.773-1.299l.837-2.317a2.15 2.15 0 0 0-1.307-2.755 2.17 2.17 0 0 0-2.772 1.299M42.017 53.22l.24.825a.572.572 0 0 1-.393.709l-7.042 2.024a.288.288 0 0 1-.356-.195l-.014-.048-.421.118a1.143 1.143 0 0 1-.803.821c-.446.124-1.29-.275-1.715-.5a.282.282 0 0 1-.111-.397c.247-.41.763-1.185 1.21-1.308.407-.112.822.011 1.105.284l.415-.117-.066-.227a.286.286 0 0 1 .197-.355l7.04-2.024a.576.576 0 0 1 .714.39M43.945 29.627c0 2.212 1.804 4.006 4.03 4.006s4.03-1.794 4.03-4.006-1.804-4.005-4.03-4.005-4.03 1.793-4.03 4.005"/>
        <path fill="#E0E0E0" d="M37.037 34.205H23.22a1.148 1.148 0 0 1-1.152-1.145v-5.15c0-.316.258-.572.576-.572h14.97c.317 0 .575.256.575.572v5.15c0 .632-.515 1.145-1.15 1.145"/>
        <path fill="#F0F0F0" d="M37.613 27.338h-14.97a.574.574 0 0 0-.575.572v1.717c0-.632.515-1.145 1.15-1.145h13.82c.635 0 1.15.513 1.15 1.145V27.91a.574.574 0 0 0-.575-.572"/>
        <path stroke="#1A1816" stroke-linecap="round" stroke-linejoin="round" stroke-width=".5" d="M37.037 34.205H23.22a1.148 1.148 0 0 1-1.152-1.145v-5.15c0-.316.258-.572.576-.572h14.97c.317 0 .575.256.575.572v5.15c0 .632-.515 1.145-1.15 1.145zM23.795 32.488h1.151M23.795 30.771h1.151M23.795 29.055h1.151M26.098 30.771h1.151M26.098 29.055h1.151M28.401 30.771h1.151M28.401 29.055h1.151M30.704 30.771h1.151M30.704 29.055h1.151M33.007 30.771h1.151M33.007 29.055h1.151M35.31 32.488h1.151M35.31 30.771h1.151M35.31 29.055h1.151M26.098 32.488h8.06"/>
        <path fill="#E0E0E0" d="M51.41 10.744H8.846c-1.49 0-2.477 1.533-1.854 2.877h46.27c.623-1.344-.365-2.877-1.854-2.877"/>
        <path stroke="#1A1816" stroke-linecap="round" stroke-linejoin="round" stroke-width=".5" d="M51.41 10.744H8.846c-1.49 0-2.477 1.533-1.854 2.877h46.27c.623-1.344-.365-2.877-1.854-2.877z"/>
        <path fill="#E0E0E0" d="M32.686 15.321H27.57c-1.168 0-2.151.87-2.287 2.022l-.61 5.15a2.294 2.294 0 0 0 2.287 2.556h6.336a2.294 2.294 0 0 0 2.287-2.556l-.61-5.15a2.298 2.298 0 0 0-2.287-2.022"/>
        <path fill="#BDBEC0" d="M35.513 21.902l-.54-4.56a2.298 2.298 0 0 0-2.287-2.02H27.57a2.298 2.298 0 0 0-2.287 2.02l-.54 4.56h10.77z"/>
        <path stroke="#1A1816" stroke-linecap="round" stroke-linejoin="round" stroke-width=".5" d="M32.686 15.321H27.57c-1.168 0-2.151.87-2.287 2.022l-.61 5.15a2.294 2.294 0 0 0 2.287 2.556h6.336a2.294 2.294 0 0 0 2.287-2.556l-.61-5.15a2.298 2.298 0 0 0-2.287-2.022z"/>
        <path fill="#00B8F0" d="M52.276 11.888H7.98c-.895 0-1.448.97-.987 1.733l3.632 6.017a1.73 1.73 0 0 0 1.481.833h36.043a1.73 1.73 0 0 0 1.482-.833l3.632-6.017c.46-.762-.092-1.733-.987-1.733"/>
        <path fill="#4ACFFF" d="M12.106 20.471h9.386l8.636-8.583H7.98c-.895 0-1.448.97-.988 1.733l3.633 6.017a1.73 1.73 0 0 0 1.481.833"/>
        <path stroke="#1A1816" stroke-linecap="round" stroke-linejoin="round" stroke-width=".5" d="M52.276 11.888H7.98c-.895 0-1.448.97-.987 1.733l3.632 6.017a1.73 1.73 0 0 0 1.481.833h36.043a1.73 1.73 0 0 0 1.482-.833l3.632-6.017c.46-.762-.092-1.733-.987-1.733z"/>
        <path fill="#E0E0E0" d="M10.092 18.755l.533.883a1.73 1.73 0 0 0 1.481.833H48.15c.607 0 1.169-.316 1.48-.833l.534-.883H10.092z"/>
        <path stroke="#1A1816" stroke-linecap="round" stroke-linejoin="round" stroke-width=".5" d="M10.092 18.755l.533.883a1.73 1.73 0 0 0 1.481.833H48.15c.607 0 1.169-.316 1.48-.833l.534-.883H10.092z"/>
        <path fill="#E0E0E0" d="M44.555 39.25l-.779 2.154a2 2 0 0 0 1.215 2.563 2.019 2.019 0 0 0 2.578-1.208l.779-2.154a2 2 0 0 0-1.216-2.562 2.018 2.018 0 0 0-2.577 1.208"/>
        <path fill="#F0F0F0" d="M47.132 38.043a2.018 2.018 0 0 0-2.577 1.207l-.487 1.347a2.019 2.019 0 0 1 2.578-1.208 2 2 0 0 1 1.215 2.562l.486-1.346a2 2 0 0 0-1.215-2.562"/>
        <path stroke="#1A1816" stroke-linecap="round" stroke-linejoin="round" stroke-width=".5" d="M44.555 39.25l-.779 2.154a2 2 0 0 0 1.215 2.563 2.019 2.019 0 0 0 2.578-1.208l.779-2.154a2 2 0 0 0-1.216-2.562 2.018 2.018 0 0 0-2.577 1.208z"/>
        <path fill="#1A1816" d="M46.549 39.372a.285.285 0 1 0 0 .572.285.285 0 1 0 0-.572"/>
        <path fill="#FF6242" d="M40.944 54.44a.572.572 0 0 0 .402-.704l-.152-.552a.576.576 0 0 0-.708-.4l-6.661 1.823a.571.571 0 0 0-.403.704l.153.552a.576.576 0 0 0 .708.4l6.661-1.823z"/>
        <path fill="#FF866E" d="M33.498 55.586l7.772-2.126-.076-.276a.577.577 0 0 0-.709-.4l-6.66 1.823a.572.572 0 0 0-.403.704l.076.275z"/>
        <path stroke="#1A1816" stroke-linecap="round" stroke-linejoin="round" stroke-width=".5" d="M38.265 53.392l.459 1.655M40.486 52.785a1.152 1.152 0 0 0-1.416-.8l-2.22.608"/>
        <path fill="#656769" d="M32.895 56.642a.857.857 0 0 0 .603-1.056.864.864 0 0 0-1.061-.6c-.46.126-1.16 1.208-1.16 1.208s1.158.574 1.618.448"/>
        <path fill="#87898C" d="M31.278 56.194s.699-1.081 1.159-1.207a.864.864 0 0 1 1.062.6l-2.221.607z"/>
        <path stroke="#1A1816" stroke-linecap="round" stroke-linejoin="round" stroke-width=".5" d="M32.895 56.642a.857.857 0 0 0 .603-1.056.864.864 0 0 0-1.061-.6c-.46.126-1.16 1.208-1.16 1.208s1.158.574 1.618.448zM40.944 54.44a.572.572 0 0 0 .402-.704l-.152-.552a.576.576 0 0 0-.708-.4l-6.661 1.823a.571.571 0 0 0-.403.704l.153.552a.576.576 0 0 0 .708.4l6.661-1.823z"/>
        <path fill="#915E3A" d="M41.4 44.629a1.146 1.146 0 0 0 1.055-1.234 1.15 1.15 0 0 0-1.241-1.047l-1.148.093.187 2.28 1.147-.092z"/>
        <path fill="#BF8256" d="M42.404 43.83c.044-.137.063-.283.051-.435a1.15 1.15 0 0 0-1.242-1.047l-1.147.093.07.855 1.147-.093c.482-.039.917.223 1.121.627"/>
        <path fill="#915E3A" d="M40.627 49.284a.573.573 0 0 1-.527.617l-18.364 1.487a.575.575 0 0 1-.62-.524l-.935-11.406a.574.574 0 0 1 .527-.617l18.363-1.487a.575.575 0 0 1 .62.524l.936 11.406z"/>
        <path fill="#BF8256" d="M39.071 37.354l-18.363 1.487a.574.574 0 0 0-.527.617l.117 1.426a.574.574 0 0 1 .527-.617l18.363-1.487a.575.575 0 0 1 .62.524l-.116-1.426a.575.575 0 0 0-.62-.524"/>
        <path stroke="#1A1816" stroke-linecap="round" stroke-linejoin="round" stroke-width=".5" d="M40.627 49.284a.573.573 0 0 1-.527.617l-18.364 1.487a.575.575 0 0 1-.62-.524l-.935-11.406a.574.574 0 0 1 .527-.617l18.363-1.487a.575.575 0 0 1 .62.524l.936 11.406zM41.4 44.629a1.146 1.146 0 0 0 1.055-1.234 1.15 1.15 0 0 0-1.241-1.047l-1.148.093.187 2.28 1.147-.092z"/>
        <path fill="#FFF5E3" d="M30.204 48.98a.573.573 0 0 1-.527.617l-5.739.465a.574.574 0 0 1-.62-.524l-.748-9.125a.574.574 0 0 1 .527-.617l5.738-.465a.575.575 0 0 1 .621.524l.748 9.125z"/>
        <path stroke="#1A1816" stroke-linecap="round" stroke-linejoin="round" stroke-width=".5" d="M30.204 48.98a.573.573 0 0 1-.527.617l-5.739.465a.574.574 0 0 1-.62-.524l-.748-9.125a.574.574 0 0 1 .527-.617l5.738-.465a.575.575 0 0 1 .621.524l.748 9.125z"/>
        <path fill="#FFF5E3" d="M38.238 48.33a.573.573 0 0 1-.527.616l-5.739.465a.574.574 0 0 1-.62-.524l-.748-9.125a.573.573 0 0 1 .527-.617l5.738-.465a.575.575 0 0 1 .621.524l.748 9.126z"/>
        <path stroke="#1A1816" stroke-linecap="round" stroke-linejoin="round" stroke-width=".5" d="M38.238 48.33a.573.573 0 0 1-.527.616l-5.739.465a.574.574 0 0 1-.62-.524l-.748-9.125a.573.573 0 0 1 .527-.617l5.738-.465a.575.575 0 0 1 .621.524l.748 9.126z"/>
        <path fill="#FF6242" d="M22.71 42.124l-.574.046a.575.575 0 0 1-.62-.524l-.047-.57a.574.574 0 0 1 .527-.617l.574-.046.14 1.71z"/>
        <path stroke="#1A1816" stroke-linecap="round" stroke-linejoin="round" stroke-width=".5" d="M22.71 42.124l-.574.046a.575.575 0 0 1-.62-.524l-.047-.57a.574.574 0 0 1 .527-.617l.574-.046.14 1.71z"/>
        <path fill="#FF8A14" d="M38.918 42.533l-1.148.094-.14-1.711.574-.047a.575.575 0 0 1 .62.524l.094 1.14z"/>
        <path stroke="#1A1816" stroke-linecap="round" stroke-linejoin="round" stroke-width=".5" d="M38.918 42.533l-1.148.094-.14-1.711.574-.047a.575.575 0 0 1 .62.524l.094 1.14z"/>
        <path fill="#6DD627" d="M39.058 44.244l-1.148.093-.14-1.71 1.148-.094z"/>
        <path stroke="#1A1816" stroke-linecap="round" stroke-linejoin="round" stroke-width=".5" d="M39.058 44.244l-1.148.093-.14-1.71 1.148-.094z"/>
        <path fill="#00B8F0" d="M39.152 45.385a.573.573 0 0 1-.527.617l-.574.046-.14-1.71 1.147-.094.094 1.141z"/>
        <path stroke="#1A1816" stroke-linecap="round" stroke-linejoin="round" stroke-width=".5" d="M39.152 45.385a.573.573 0 0 1-.527.617l-.574.046-.14-1.71 1.147-.094.094 1.141zM29.023 41.612l2.295-.185M29.116 42.753l2.295-.186M29.537 47.886l2.295-.186M29.443 46.745l2.296-.185M23.764 40.89l1.722-.139M27.207 40.611l.574-.046"/>
        <path stroke="#BDBEC0" stroke-linecap="round" stroke-linejoin="round" stroke-width=".5" d="M23.858 42.031l4.017-.326M24.045 44.312l4.017-.325"/>
        <path stroke="#1A1816" stroke-linecap="round" stroke-linejoin="round" stroke-width=".5" d="M24.138 45.453l1.722-.14M27.581 45.174l.574-.047"/>
        <path stroke="#BDBEC0" stroke-linecap="round" stroke-linejoin="round" stroke-width=".5" d="M24.232 46.593l4.017-.325M24.419 48.875l4.017-.326"/>
        <path stroke="#1A1816" stroke-linecap="round" stroke-linejoin="round" stroke-width=".5" d="M32.372 40.193l1.721-.139M35.815 39.914l.574-.046"/>
        <path stroke="#BDBEC0" stroke-linecap="round" stroke-linejoin="round" stroke-width=".5" d="M32.466 41.334l4.017-.326M32.653 43.615l4.017-.325"/>
        <path stroke="#1A1816" stroke-linecap="round" stroke-linejoin="round" stroke-width=".5" d="M32.746 44.756l1.721-.14M36.189 44.477l.574-.047"/>
        <path stroke="#BDBEC0" stroke-linecap="round" stroke-linejoin="round" stroke-width=".5" d="M32.84 45.896l4.017-.325M33.027 48.178l4.017-.326"/>
        <path fill="#FFF" d="M51.185 32.159a.868.868 0 0 0 1.221 0 .854.854 0 0 0 0-1.214l-1.425-1.416-1.221 1.214 1.425 1.416z"/>
        <path stroke="#1A1816" stroke-linecap="round" stroke-linejoin="round" stroke-width=".5" d="M51.185 32.159a.868.868 0 0 0 1.221 0 .854.854 0 0 0 0-1.214l-1.425-1.416-1.221 1.214 1.425 1.416z"/>
        <path fill="#FFF" d="M50.778 30.54a3.759 3.759 0 0 1-5.293 0 3.703 3.703 0 0 1 0-5.26 3.759 3.759 0 0 1 5.293 0 3.703 3.703 0 0 1 0 5.26"/>
        <path stroke="#1A1816" stroke-linecap="round" stroke-linejoin="round" stroke-width=".5" d="M50.778 30.54a3.759 3.759 0 0 1-5.293 0 3.703 3.703 0 0 1 0-5.26 3.759 3.759 0 0 1 5.293 0 3.703 3.703 0 0 1 0 5.26z"/>
        <path fill="#BF8256" d="M50.722 27.91a2.583 2.583 0 0 1-2.59 2.576 2.583 2.583 0 0 1-2.592-2.575 2.583 2.583 0 0 1 2.592-2.575c1.43 0 2.59 1.152 2.59 2.575"/>
        <path fill="#915E3A" d="M48.132 26.48c1.232 0 2.258.857 2.52 2.003a2.54 2.54 0 0 0 .07-.572 2.583 2.583 0 0 0-2.59-2.575 2.583 2.583 0 0 0-2.591 2.575c0 .197.026.387.069.572a2.585 2.585 0 0 1 2.522-2.003"/>
        <path stroke="#1A1816" stroke-linecap="round" stroke-linejoin="round" stroke-width=".5" d="M50.722 27.91a2.583 2.583 0 0 1-2.59 2.576 2.583 2.583 0 0 1-2.592-2.575 2.583 2.583 0 0 1 2.592-2.575c1.43 0 2.59 1.152 2.59 2.575z"/>
        <path fill="#020202" fill-opacity=".15" d="M14.246 37.328l-4.478 1.008c-.31.07-.62-.108-.695-.397L7.052 30.09c-.074-.289.116-.58.425-.649l4.478-1.007c.31-.07.62.108.695.397l2.02 7.847c.075.29-.115.58-.424.65"/>
        <path fill="#FFF" d="M14.279 36.22l-4.025.963a.348.348 0 0 1-.42-.255L8.057 29.59a.346.346 0 0 1 .256-.418l4.026-.963a.348.348 0 0 1 .42.256l1.777 7.338a.346.346 0 0 1-.257.417"/>
        <path stroke="#1A1816" stroke-linecap="round" stroke-linejoin="round" stroke-width=".5" d="M14.279 36.22l-4.025.963a.348.348 0 0 1-.42-.255L8.057 29.59a.346.346 0 0 1 .256-.418l4.026-.963a.348.348 0 0 1 .42.256l1.777 7.338a.346.346 0 0 1-.257.417z"/>
        <path fill="#00B8F0" d="M14.294 34.804L9.592 35.93l-1.294-5.34 4.703-1.126z"/>
        <path fill="#4ACFFF" d="M9.35 34.928l3.315-5.384-4.367 1.044z"/>
        <path stroke="#1A1816" stroke-linecap="round" stroke-linejoin="round" stroke-width=".5" d="M14.294 34.804L9.592 35.93l-1.294-5.34 4.703-1.126z"/>
    </g>
</svg>
