<svg xmlns="http://www.w3.org/2000/svg" xmlns:xlink="http://www.w3.org/1999/xlink" width="60" height="61" viewBox="0 0 60 61">
    <defs>
        <path id="a" d="M0 25.778c0 14.237 11.478 25.778 25.636 25.778 14.159 0 25.637-11.541 25.637-25.778C51.273 11.54 39.795 0 25.636 0 11.478 0 0 11.54 0 25.778z"/>
    </defs>
    <g fill="none" fill-rule="evenodd">
        <path fill="#E8F4FA" d="M55.636 30.678C55.636 16.441 44.158 4.9 30 4.9S4.364 16.441 4.364 30.678c0 3.793.821 7.39 2.284 10.633h46.704a25.797 25.797 0 0 0 2.284-10.633"/>
        <path fill="#FFF" d="M6.648 41.311C10.676 50.241 19.613 56.456 30 56.456S49.324 50.24 53.352 41.31H6.648z"/>
        <path stroke="#1A1816" stroke-linecap="round" stroke-linejoin="round" stroke-width=".6" d="M5.005 41.311h49.99M2.12 41.311h1.603M56.277 41.311h1.603"/>
        <path fill="#FFCEBF" d="M46.614 35.122a1.612 1.612 0 0 1 1.196 1.936l-.496 2.13-3.12-.735.495-2.13a1.602 1.602 0 0 1 1.925-1.2"/>
        <path stroke="#1A1816" stroke-linecap="round" stroke-linejoin="round" stroke-width=".6" d="M46.614 35.122a1.612 1.612 0 0 1 1.196 1.936l-.496 2.13-3.12-.735.495-2.13a1.602 1.602 0 0 1 1.925-1.2z"/>
        <path fill="#FFCEBF" d="M13.386 35.12a1.612 1.612 0 0 0-1.196 1.936l.496 2.13 3.12-.734-.495-2.13a1.602 1.602 0 0 0-1.925-1.202"/>
        <path stroke="#1A1816" stroke-linecap="round" stroke-linejoin="round" stroke-width=".6" d="M13.386 35.12a1.612 1.612 0 0 0-1.196 1.936l.496 2.13 3.12-.734-.495-2.13a1.602 1.602 0 0 0-1.925-1.202z"/>
        <path fill="#46B000" d="M7.58 30.073v2.056c0 .463.331.857.786.934 2.533.427 5.2.448 7.854 0a.946.946 0 0 0 .787-.934v-2.056"/>
        <path stroke="#1A1816" stroke-linejoin="round" stroke-width=".6" d="M7.58 30.073v2.056c0 .463.331.857.786.934 2.533.427 5.2.448 7.854 0a.946.946 0 0 0 .787-.934v-2.056"/>
        <path fill="#46B000" d="M7.58 28.177v2.056c0 .464.331.857.786.934 2.533.427 5.2.448 7.854 0a.947.947 0 0 0 .787-.934v-2.056"/>
        <path stroke="#1A1816" stroke-linejoin="round" stroke-width=".6" d="M7.58 28.177v2.056c0 .464.331.857.786.934 2.533.427 5.2.448 7.854 0a.947.947 0 0 0 .787-.934v-2.056"/>
        <path fill="#46B000" d="M7.58 26.282v2.055c0 .464.331.857.786.934 2.533.427 5.2.448 7.854 0a.946.946 0 0 0 .787-.934v-2.055"/>
        <path stroke="#1A1816" stroke-linejoin="round" stroke-width=".6" d="M7.58 26.282v2.055c0 .464.331.857.786.934 2.533.427 5.2.448 7.854 0a.946.946 0 0 0 .787-.934v-2.055"/>
        <path fill="#6DD627" d="M17.007 24.86a.948.948 0 0 0-1.088-.937 23.596 23.596 0 0 1-7.251 0 .949.949 0 0 0-1.088.937V26.442c0 .462.331.857.786.933a23.544 23.544 0 0 0 7.854 0 .946.946 0 0 0 .787-.933V24.86z"/>
        <path stroke="#1A1816" stroke-linejoin="round" stroke-width=".6" d="M17.007 24.86a.948.948 0 0 0-1.088-.937 23.596 23.596 0 0 1-7.251 0 .949.949 0 0 0-1.088.937V26.442c0 .462.331.857.786.933a23.544 23.544 0 0 0 7.854 0 .946.946 0 0 0 .787-.933V24.86z"/>
        <path fill="#C8FFA1" d="M13.236 26.044c0 .393-.422.712-.943.712-.52 0-.943-.319-.943-.712 0-.392.423-.71.943-.71.521 0 .943.318.943.71"/>
        <path fill="#6DD627" d="M20.727 28.376a.94.94 0 0 0-1.262-.682 23.602 23.602 0 0 1-7.084 1.557.943.943 0 0 0-.694.375.954.954 0 0 0-.17.774l.162.747.437 2.008a.943.943 0 0 0 .967.744 23.598 23.598 0 0 0 7.673-1.687.949.949 0 0 0 .57-1.081l-.437-2.008-.162-.747z"/>
        <path stroke="#1A1816" stroke-linejoin="round" stroke-width=".6" d="M20.727 28.376a.94.94 0 0 0-1.262-.682 23.602 23.602 0 0 1-7.084 1.557.943.943 0 0 0-.694.375.954.954 0 0 0-.17.774l.162.747.437 2.008a.943.943 0 0 0 .967.744 23.598 23.598 0 0 0 7.673-1.687.949.949 0 0 0 .57-1.081l-.437-2.008-.162-.747z"/>
        <path fill="#C8FFA1" d="M17.406 30.859a.943.943 0 1 1-1.842.405.942.942 0 1 1 1.842-.405"/>
        <path fill="#FFE600" d="M51.888 34.214a2.56 2.56 0 0 1-2.226 1.3h-7.92c-.92 0-1.769-.496-2.226-1.3a.64.64 0 0 1 .553-.956h11.267a.64.64 0 0 1 .552.956"/>
        <path fill="#FFF48C" d="M39.516 34.214c.067.118.143.228.225.332h11.922a2.64 2.64 0 0 0 .225-.332.643.643 0 0 0-.002-.638.636.636 0 0 0-.55-.319H40.069a.637.637 0 0 0-.553.957"/>
        <path fill="#FF6242" d="M52.111 26.811c0 3.56-2.869 6.445-6.409 6.445-3.54 0-6.409-2.886-6.409-6.445s2.87-6.444 6.41-6.444c3.539 0 6.408 2.885 6.408 6.444"/>
        <path stroke="#1A1816" stroke-linejoin="round" stroke-width=".6" d="M52.111 26.811c0 3.56-2.869 6.445-6.409 6.445-3.54 0-6.409-2.886-6.409-6.445s2.87-6.444 6.41-6.444c3.539 0 6.408 2.885 6.408 6.444z"/>
        <path fill="#FFF" d="M50.83 26.811c0 2.848-2.296 5.156-5.128 5.156-2.831 0-5.127-2.308-5.127-5.156 0-2.847 2.296-5.155 5.127-5.155 2.832 0 5.128 2.308 5.128 5.155"/>
        <path fill="#E0E0E0" d="M45.702 23.267c2.559 0 4.673 1.886 5.059 4.35a5.22 5.22 0 0 0 .069-.806c0-2.847-2.296-5.155-5.128-5.155-2.831 0-5.127 2.308-5.127 5.155 0 .275.028.542.069.806.385-2.464 2.5-4.35 5.058-4.35"/>
        <path stroke="#1A1816" stroke-linejoin="round" stroke-width=".6" d="M50.83 26.811c0 2.848-2.296 5.156-5.128 5.156-2.831 0-5.127-2.308-5.127-5.156 0-2.847 2.296-5.155 5.127-5.155 2.832 0 5.128 2.308 5.128 5.155z"/>
        <path stroke="#1A1816" stroke-linecap="round" stroke-linejoin="round" stroke-width=".6" d="M45.702 23.267v3.544h1.923M48.421 24.077l-.453.456M49.548 26.811h-.641M48.421 29.545l-.453-.455M45.702 30.678v-.644M42.983 29.545l.453-.455M41.857 26.811h.641M42.983 24.077l.453.456M51.888 34.214a2.56 2.56 0 0 1-2.226 1.3h-7.92c-.92 0-1.769-.496-2.226-1.3a.64.64 0 0 1 .553-.956h11.267a.64.64 0 0 1 .552.956z"/>
        <path fill="#FFE600" d="M19.522 34.212a2.562 2.562 0 0 1-2.226 1.3h-7.92c-.92 0-1.769-.497-2.226-1.3a.64.64 0 0 1 .553-.956H18.97a.64.64 0 0 1 .551.956"/>
        <path fill="#FFF48C" d="M7.15 34.212c.067.118.143.229.225.333h11.923c.082-.104.157-.215.224-.333a.642.642 0 0 0-.002-.638.634.634 0 0 0-.55-.318H7.703a.636.636 0 0 0-.55.318.644.644 0 0 0-.003.638"/>
        <path stroke="#1A1816" stroke-linecap="round" stroke-linejoin="round" stroke-width=".6" d="M19.522 34.212a2.562 2.562 0 0 1-2.226 1.3h-7.92c-.92 0-1.769-.497-2.226-1.3a.64.64 0 0 1 .553-.956H18.97a.64.64 0 0 1 .551.956z"/>
        <g transform="translate(4.364 4.9)">
            <mask id="b" fill="#fff">
                <use xlink:href="#a"/>
            </mask>
            <path fill="#00B8F0" d="M19.548 54.456h12.177v-5.478H19.548z" mask="url(#b)"/>
            <path stroke="#1A1816" stroke-linecap="round" stroke-linejoin="round" stroke-width=".6" d="M19.548 54.456h12.177v-5.478H19.548zM25.636 52.523v1.933" mask="url(#b)"/>
            <path fill="#00B8F0" d="M39.291 34.05l-.984 3.25c-.147.488-.525.893-1.02 1.007a1.396 1.396 0 0 1-1.717-1.36h-.018c-.197-5.208-4.224-9.62-9.435-9.866-.163-.007-.32.002-.48.002-.16 0-.318-.01-.48-.002-5.212.247-9.24 4.658-9.436 9.866h-.018c0 .877-.81 1.57-1.718 1.36-.494-.114-.873-.52-1.02-1.007l-.983-3.25a.642.642 0 0 0-.758-.442l-2.504.581a.645.645 0 0 0-.469.816l1.01 3.337c.606 2.003 2.284 3.551 4.35 3.823 3.16.415 5.866-2.024 5.932-5.106l.005-.003v15.145h3.22c1.132 0 2.13-.747 2.455-1.838l.413-1.385.414 1.385a2.566 2.566 0 0 0 2.455 1.838h3.22V37.056l.005.003c.066 3.082 2.772 5.521 5.932 5.106 2.065-.272 3.743-1.82 4.35-3.823l1.01-3.337a.645.645 0 0 0-.47-.816l-2.503-.58a.64.64 0 0 0-.758.44" mask="url(#b)"/>
            <path fill="#00B8F0" d="M15.71 36.946h-.007c0 .01-.003.02-.003.029l.01-.029" mask="url(#b)"/>
            <path fill="#4ACFFF" d="M25.636 29.645c4.639 0 8.564 3.05 9.913 7.263-.215-5.19-4.234-9.58-9.433-9.827-.162-.008-.32.002-.48.003-.16 0-.318-.01-.48-.003-5.198.246-9.217 4.636-9.432 9.827 1.349-4.213 5.274-7.263 9.912-7.263" mask="url(#b)"/>
            <path fill="#00B8F0" d="M35.57 36.946h-.008c.003.01.008.02.01.029l-.002-.029" mask="url(#b)"/>
            <path stroke="#1A1816" stroke-linecap="round" stroke-linejoin="round" stroke-width=".6" d="M39.291 34.05l-.984 3.25c-.147.488-.525.893-1.02 1.007a1.396 1.396 0 0 1-1.717-1.36h-.018c-.197-5.208-4.224-9.62-9.435-9.866-.163-.007-.32.002-.48.002-.16 0-.318-.01-.48-.002-5.212.247-9.24 4.658-9.436 9.866h-.018c0 .877-.81 1.57-1.718 1.36-.494-.114-.873-.52-1.02-1.007l-.983-3.25a.642.642 0 0 0-.758-.442l-2.504.581a.645.645 0 0 0-.469.816l1.01 3.337c.606 2.003 2.284 3.551 4.35 3.823 3.16.415 5.866-2.024 5.932-5.106l.005-.003v15.145h3.22c1.132 0 2.13-.747 2.455-1.838l.413-1.385.414 1.385a2.566 2.566 0 0 0 2.455 1.838h3.22V37.056l.005.003c.066 3.082 2.772 5.521 5.932 5.106 2.065-.272 3.743-1.82 4.35-3.823l1.01-3.337a.645.645 0 0 0-.47-.816l-2.503-.58a.64.64 0 0 0-.758.44z" mask="url(#b)"/>
            <path fill="#00B8F0" d="M31.725 30.614c0-1.936-1.889-3.63-4.054-3.869h-4.069c-2.166.238-4.054 1.933-4.054 3.87l1.922.644-1.602 1.933 5.768 8.7 5.769-8.7-1.603-1.933 1.923-.645z" mask="url(#b)"/>
            <path stroke="#1A1816" stroke-linecap="round" stroke-linejoin="round" stroke-width=".6" d="M31.725 30.614c0-1.936-1.889-3.63-4.054-3.869h-4.069c-2.166.238-4.054 1.933-4.054 3.87l1.922.644-1.602 1.933 5.768 8.7 5.769-8.7-1.603-1.933 1.923-.645z" mask="url(#b)"/>
            <path fill="#FFF" d="M27.88 28.68v-2.255h-4.487v2.256c-.35 1.528-.7 2.72-.207 4.208l2.45 9.003 2.45-9.003c.494-1.487.144-2.68-.206-4.208" mask="url(#b)"/>
            <path stroke="#1A1816" stroke-linecap="round" stroke-linejoin="round" stroke-width=".6" d="M27.88 28.68v-2.255h-4.487v2.256c-.35 1.528-.7 2.72-.207 4.208l2.45 9.003 2.45-9.003c.494-1.487.144-2.68-.206-4.208z" mask="url(#b)"/>
            <path stroke="#1A1816" stroke-linecap="round" stroke-linejoin="round" stroke-width=".6" d="M28.188 32.54l-2.552-1.604-2.552 1.604" mask="url(#b)"/>
            <path fill="#FF6242" d="M26.796 31.665l-.519 1.205h-1.282l-.519-1.205 1.16-.729z" mask="url(#b)"/>
            <path stroke="#1A1816" stroke-linecap="round" stroke-linejoin="round" stroke-width=".6" d="M26.796 31.665l-.519 1.205h-1.282l-.519-1.205 1.16-.729z" mask="url(#b)"/>
            <path fill="#FF6242" d="M26.94 37.1c-.159-2.871-.663-4.23-.663-4.23h-1.281s-.504 1.359-.664 4.23l1.304 4.792 1.305-4.792z" mask="url(#b)"/>
            <path stroke="#1A1816" stroke-linecap="round" stroke-linejoin="round" stroke-width=".6" d="M26.94 37.1c-.159-2.871-.663-4.23-.663-4.23h-1.281s-.504 1.359-.664 4.23l1.304 4.792 1.305-4.792z" mask="url(#b)"/>
            <path fill="#FFCEBF" d="M27.88 28.68l-2.244 2.256-2.243-2.255v-3.545h4.487z" mask="url(#b)"/>
            <path stroke="#1A1816" stroke-linecap="round" stroke-linejoin="round" stroke-width=".6" d="M27.88 28.68l-2.244 2.256-2.243-2.255v-3.545h4.487z" mask="url(#b)"/>
            <path fill="#FFB59E" d="M23.393 27.383a7.81 7.81 0 0 0 2.243.331c.78 0 1.532-.118 2.244-.33v-2.247h-4.487v2.246z" mask="url(#b)"/>
            <path stroke="#1A1816" stroke-linecap="round" stroke-linejoin="round" stroke-width=".6" d="M27.88 28.68l-2.244 2.256-2.243-2.255v-3.545h4.487z" mask="url(#b)"/>
            <g mask="url(#b)">
                <path fill="#656769" d="M31.725 49.623V36.092"/>
                <path stroke="#1A1816" stroke-linecap="round" stroke-linejoin="round" stroke-width=".6" d="M31.725 49.623V36.092"/>
            </g>
            <path stroke="#1A1816" stroke-linecap="round" stroke-linejoin="round" stroke-width=".6" d="M25.636 48.978v-7.086M27.559 47.045h2.564M21.15 47.045h2.564" mask="url(#b)"/>
            <path fill="#FFCEBF" d="M32.039 18.365v-1.611c0-3.56-2.87-6.444-6.41-6.444-3.539 0-6.408 2.885-6.408 6.444v1.611c-.708 0-1.282.578-1.282 1.289s.574 1.289 1.282 1.289c.027 0 .052-.007.079-.008.461 3.103 3.115 5.486 6.33 5.486s5.869-2.383 6.33-5.486c.027.001.052.008.079.008.707 0 1.282-.578 1.282-1.289s-.575-1.289-1.282-1.289" mask="url(#b)"/>
            <path stroke="#1A1816" stroke-linecap="round" stroke-linejoin="round" stroke-width=".6" d="M32.039 18.365v-1.611c0-3.56-2.87-6.444-6.41-6.444-3.539 0-6.408 2.885-6.408 6.444v1.611c-.708 0-1.282.578-1.282 1.289s.574 1.289 1.282 1.289c.027 0 .052-.007.079-.008.461 3.103 3.115 5.486 6.33 5.486s5.869-2.383 6.33-5.486c.027.001.052.008.079.008.707 0 1.282-.578 1.282-1.289s-.575-1.289-1.282-1.289zM23.696 22.878c1.168 1.034 2.689 1.034 3.857 0" mask="url(#b)"/>
            <path stroke="#1A1816" stroke-linecap="round" stroke-linejoin="round" stroke-width=".6" d="M29.155 19.01c-.199-.38-.548-.647-.964-.647-.417 0-.766.268-.964.647M24.033 19.01c-.199-.38-.548-.647-.964-.647-.417 0-.766.268-.964.647" mask="url(#b)"/>
            <path fill="#FFB59E" d="M22.746 21.104a.804.804 0 0 1-.801.806.804.804 0 0 1-.802-.806c0-.445.36-.806.802-.806.442 0 .8.361.8.806M28.514 21.104c0 .445.359.806.801.806.442 0 .801-.361.801-.806a.804.804 0 0 0-.801-.806.804.804 0 0 0-.801.806" mask="url(#b)"/>
            <path fill="#A86C4E" d="M30.123 9.667c0-.563-.99-1.29-2.243-1.29h-4.166c-3.514 0-6.089 2.912-6.089 6.446 0 1.347.215 2.692.923 3.744.197-.125.429-.2.68-.2.385 0 .727.175.962.447.098-.896.232-2.526.059-3.566.677.226 1.472.329 2.307.329 3.21 0 7.01-1.511 7.01-3.257-.198 2.477.568 4.412 1.72 6.303.212-.158.474-.256.76-.256.32 0 .61.123.835.319.015.008.031.013.046.028.518.52 2.27-7.913-2.804-9.047" mask="url(#b)"/>
            <path fill="#DE926B" d="M23.714 10.632h4.166c1.253 0 2.243.727 2.243 1.29 2.36.528 3.243 2.637 3.46 4.689.244-2.444-.187-6.213-3.46-6.944 0-.563-.99-1.29-2.243-1.29h-4.166c-3.514 0-6.089 2.913-6.089 6.446 0 .424.025.848.076 1.263.432-3.07 2.835-5.454 6.013-5.454" mask="url(#b)"/>
            <path stroke="#1A1816" stroke-linejoin="round" stroke-width=".6" d="M30.123 9.667c0-.563-.99-1.29-2.243-1.29h-4.166c-3.514 0-6.089 2.912-6.089 6.446 0 1.347.215 2.692.923 3.744.197-.125.429-.2.68-.2.385 0 .727.175.962.447.098-.896.232-2.526.059-3.566.677.226 1.472.329 2.307.329 3.21 0 7.01-1.511 7.01-3.257-.198 2.477.568 4.412 1.72 6.303.212-.158.474-.256.76-.256.32 0 .61.123.835.319.015.008.031.013.046.028.518.52 2.27-7.913-2.804-9.047z" mask="url(#b)"/>
        </g>
    </g>
</svg>
